<?xml version="1.0" standalone="no"?><!DOCTYPE svg PUBLIC "-//W3C//DTD SVG 1.1//EN" "http://www.w3.org/Graphics/SVG/1.1/DTD/svg11.dtd"><svg t="1692156562860" class="icon" viewBox="0 0 1024 1024" version="1.1" xmlns="http://www.w3.org/2000/svg" p-id="7308" xmlns:xlink="http://www.w3.org/1999/xlink" width="200" height="200"><path d="M190 831.7h-16.9c-19.9 0-36-16.1-36-36V515c0-19.9 16.1-36 36-36H190c19.9 0 36 16.1 36 36v280.7c0 19.9-16.1 36-36 36zM825 831.7h-16.9c-19.9 0-36-16.1-36-36V515c0-19.9 16.1-36 36-36H825c19.9 0 36 16.1 36 36v280.7c0 19.9-16.1 36-36 36z" fill="#76FF9D" p-id="7309"></path><path d="M256 588c-6.6 0-12-5.4-12-12v-39.5c0-6.6 5.4-12 12-12s12 5.4 12 12V576c0 6.6-5.3 12-12 12z" fill="#333333" p-id="7310"></path><path d="M220 843.7h-56c-26.5 0-48-21.5-48-48v-312c0-26.5 21.5-48 48-48h56c26.5 0 48 21.5 48 48V497c0 6.6-5.4 12-12 12s-12-5.4-12-12v-13.3c0-13.2-10.8-24-24-24h-56c-13.2 0-24 10.8-24 24v312c0 13.2 10.8 24 24 24h56c13.2 0 24-10.8 24-24V625.5c0-6.6 5.4-12 12-12s12 5.4 12 12v170.2c0 26.5-21.5 48-48 48z" fill="#333333" p-id="7311"></path><path d="M111.3 779.7h-32c-15.4 0-28-12.6-28-28v-224c0-15.4 12.6-28 28-28h32c15.4 0 28 12.6 28 28v224c0 15.5-12.5 28-28 28z m-32-256c-2.2 0-4 1.8-4 4v224c0 2.2 1.8 4 4 4h32c2.2 0 4-1.8 4-4v-224c0-2.2-1.8-4-4-4h-32zM858 844h-56c-26.5 0-48-21.5-48-48V484c0-26.5 21.5-48 48-48h56c26.5 0 48 21.5 48 48v312c0 26.4-21.5 48-48 48z m-56-384c-13.2 0-24 10.8-24 24v312c0 13.2 10.8 24 24 24h56c13.2 0 24-10.8 24-24V484c0-13.2-10.8-24-24-24h-56zM960 631.7c-6.6 0-12-5.4-12-12V583c0-6.6 5.4-12 12-12s12 5.4 12 12v36.7c0 6.6-5.4 12-12 12z" fill="#333333" p-id="7312"></path><path d="M944 781.2h-32c-15.4 0-28-12.6-28-28v-224c0-15.4 12.6-28 28-28h32c15.4 0 28 12.6 28 28v18.4c0 6.6-5.4 12-12 12s-12-5.4-12-12v-18.4c0-2.2-1.8-4-4-4h-32c-2.2 0-4 1.8-4 4v224c0 2.2 1.8 4 4 4h32c2.2 0 4-1.8 4-4V665c0-6.6 5.4-12 12-12s12 5.4 12 12v88.2c0 15.5-12.6 28-28 28zM128.2 475.7h-0.4c-6.6-0.2-11.8-5.8-11.6-12.4C119.5 360.5 162 264.4 236 192.7c74.1-71.9 171.8-111.5 275-111.5 103 0 200.5 39.4 274.6 111 73.9 71.4 116.5 167.2 120.2 269.7 0.2 6.6-4.9 12.2-11.6 12.4-6.6 0.3-12.2-4.9-12.4-11.6-7.1-200.5-170-357.5-370.8-357.5-201.5 0-364.3 157.6-370.8 358.8-0.2 6.6-5.5 11.7-12 11.7z" fill="#333333" p-id="7313"></path><path d="M849 453.8c-5.8 0-10.9-4.3-11.8-10.2C812.5 281 673.2 158.4 513 158.4c-159.7 0-299.1 122.3-324.1 284.4-1 6.6-7.1 11-13.7 10-6.5-1-11-7.1-10-13.7 12.8-82.7 54.5-159.3 117.6-215.6 64.3-57.5 146.1-89.1 230.2-89.1 84.3 0 166.2 31.7 230.6 89.4C806.7 280.3 848.4 357.1 861 440a12 12 0 0 1-10.1 13.7c-0.7 0.1-1.3 0.1-1.9 0.1z" fill="#333333" p-id="7314"></path></svg>