<svg t="1693559781634" class="icon" viewBox="0 0 1024 1024" version="1.1" xmlns="http://www.w3.org/2000/svg" p-id="9312" width="200" height="200"><path d="M512 61.44a40.96 40.96 0 0 1 40.96 40.96v122.88a40.96 40.96 0 1 1-81.92 0V102.4a40.96 40.96 0 0 1 40.96-40.96z" fill="#bfcbd9" p-id="9313"></path><path d="M737.28 121.79456a40.96 40.96 0 0 1 14.99136 55.95136l-61.44 106.43456a40.96 40.96 0 1 1-70.94272-40.96l61.44-106.43456A40.96 40.96 0 0 1 737.28 121.79456z" fill="#bfcbd9" p-id="9314"></path><path d="M902.20544 286.72a40.96 40.96 0 0 1-14.99136 55.95136l-106.43456 61.44a40.96 40.96 0 0 1-40.96-70.94272l106.43456-61.44a40.96 40.96 0 0 1 55.95136 14.99136z" fill="#bfcbd9" p-id="9315"></path><path d="M962.56 512a40.96 40.96 0 0 1-40.96 40.96h-122.88a40.96 40.96 0 1 1 0-81.92h122.88a40.96 40.96 0 0 1 40.96 40.96z" fill="#bfcbd9" p-id="9316"></path><path d="M902.20544 737.28a40.96 40.96 0 0 1-55.95136 14.99136l-106.43456-61.44a40.96 40.96 0 1 1 40.96-70.94272l106.43456 61.44A40.96 40.96 0 0 1 902.20544 737.28z" fill="#bfcbd9" p-id="9317"></path><path d="M737.28 902.20544a40.96 40.96 0 0 1-55.95136-14.99136l-61.44-106.43456a40.96 40.96 0 0 1 70.94272-40.96l61.44 106.43456A40.96 40.96 0 0 1 737.28 902.20544z" fill="#bfcbd9" p-id="9318"></path><path d="M512 962.56a40.96 40.96 0 0 1-40.96-40.96v-122.88a40.96 40.96 0 1 1 81.92 0v122.88a40.96 40.96 0 0 1-40.96 40.96z" fill="#bfcbd9" p-id="9319"></path><path d="M286.72 902.20544a40.96 40.96 0 0 1-14.99136-55.95136l61.44-106.43456a40.96 40.96 0 1 1 70.94272 40.96l-61.44 106.43456a40.96 40.96 0 0 1-55.95136 14.99136z" fill="#bfcbd9" p-id="9320"></path><path d="M121.79456 737.28a40.96 40.96 0 0 1 14.99136-55.95136l106.43456-61.44a40.96 40.96 0 0 1 40.96 70.94272l-106.43456 61.44A40.96 40.96 0 0 1 121.79456 737.28z" fill="#bfcbd9" p-id="9321"></path><path d="M61.44 512a40.96 40.96 0 0 1 40.96-40.96h122.88a40.96 40.96 0 1 1 0 81.92H102.4a40.96 40.96 0 0 1-40.96-40.96z" fill="#bfcbd9" p-id="9322"></path><path d="M121.79456 286.72a40.96 40.96 0 0 1 55.95136-14.99136l106.43456 61.44a40.96 40.96 0 1 1-40.96 70.94272l-106.43456-61.44A40.96 40.96 0 0 1 121.79456 286.72z" fill="#bfcbd9" p-id="9323"></path><path d="M286.72 121.79456a40.96 40.96 0 0 1 55.95136 14.99136l61.44 106.43456a40.96 40.96 0 0 1-70.94272 40.96l-61.44-106.43456A40.96 40.96 0 0 1 286.72 121.79456z" fill="#bfcbd9" p-id="9324"></path></svg>